<svg width="30" height="32" viewBox="0 0 30 32" xmlns="http://www.w3.org/2000/svg">
    <title>Calendar</title>
    <path d="M28.667 4.367c-.167-.033-2.067-.4-5.133-.733v-1.5c0-1.167-.967-2.133-2.133-2.133-1.167 0-2.133.967-2.133 2.133v4.267c0 .633.267 1.2.7 1.6-1.533 0-2.833-1.067-2.833-2.667v-2.1c-.7-.033-1.4-.033-2.133-.033-1.5 0-2.933.033-4.267.1v-1.167c0-1.167-.967-2.133-2.133-2.133-1.167 0-2.133.967-2.133 2.133v4.267c0 .633.267 1.2.7 1.6-1.533 0-2.833-1.067-2.833-2.667v-1.433c-1.8.233-2.9.467-3 .467-.733.167-1.267.8-1.267 1.567v23.3c0 .767.533 1.4 1.267 1.567.233.033 5.633 1.2 13.667 1.2 8.033 0 13.433-1.167 13.667-1.2.733-.167 1.267-.8 1.267-1.567v-23.3c0-.767-.533-1.4-1.267-1.567zm-13.667 24.6c-5.467 0-9.733-.6-11.733-.933v-15.233h23.467v15.233c-2 .333-6.267.933-11.733.933zm8.533-14.033h-4.267v4.267h4.267v-4.267zm-6.4 0h-4.267v4.267h4.267v-4.267zm0 10.667v-4.267h-4.267v4.267h4.267zm-6.4 0v-4.267h-4.267v4.267h4.267zm12.8 0v-4.267h-4.267v4.267h4.267z" />
</svg>
