<svg width="29" height="32" viewBox="0 0 29 32" xmlns="http://www.w3.org/2000/svg">
    <title>Company</title>
    <path d="M19.267 10.667h3.2v10.667h-3.2v-10.667zm-3.2 10.667h-3.2v-10.667h3.2v10.667zm-6.4 0h-3.2v-10.667h3.2v10.667zm19.2 10.667c-.067-21.5-1.067-26.3-1.133-26.5-.167-.733-.8-1.233-1.533-1.233h-3.967l-.3-2.9c-.067-.767-.733-1.367-1.533-1.367h-11.867c-.8 0-1.467.6-1.533 1.367l-.3 2.9h-3.967c-.733 0-1.4.5-1.567 1.233-.033.2-1.033 5-1.1 26.5h10.667v-5.333h7.467v5.333h10.667z" />
</svg>
