<svg width="32" height="32" viewBox="0 0 32 32" xmlns="http://www.w3.org/2000/svg">
    <title>Globe</title>
    <path d="M16 32c8.833 0 16-7.167 16-16s-7.167-16-16-16-16 7.167-16 16 7.167 16 16 16zm3.833-18.133h-7.667c.467-7.467 3.133-10.667 3.833-10.667.7 0 3.367 3.2 3.833 10.667zm-16.067 0c.7-4.267 3.333-7.367 6.9-9.067-1.1 2.4-1.867 5.867-2.067 9.067h-4.833zm24.467 0h-4.833c-.2-3.2-.967-6.667-2.067-9.067 3.567 1.7 6.2 4.8 6.9 9.067zm-6.9 13.533c1.133-2.467 1.867-6.067 2.1-9.267h4.833c-.667 4.267-3.3 7.533-6.933 9.267zm-5.333 1.2c-.7 0-3.433-4.067-3.867-10.467h7.733c-.433 6.4-3.167 10.467-3.867 10.467zm-5.333-1.2c-3.633-1.733-6.267-5-6.933-9.267h4.833c.233 3.2.967 6.8 2.1 9.267z" />
</svg>
