<svg width="32" height="32" viewBox="0 0 32 32" xmlns="http://www.w3.org/2000/svg">
    <title>Megaphone</title>
    <path d="M32 13.333c0-2.633-2.133-4.9-4.267-5.867v11.733c2.133-.967 4.267-3.233 4.267-5.867zm-7.033-12.2c-.433-.167-.9-.033-1.2.267-.033.067-3.667 3.933-8.833 3.933-7.433 0-13.867 0-13.867 8 0 4.967 2.5 6.867 6.167 7.567 1.533 3.667 3.6 8.467 3.8 8.933.833 1.8 2.2 2.167 3.2 2.167.9 0 1.733-.4 2.267-1.1.567-.733.767-1.733.533-2.733-.067-.233-.933-3.6-1.733-6.8 4.933.167 8.433 3.867 8.467 3.9.2.2.5.333.8.333.133 0 .267-.033.4-.067.333-.133.633-.433.633-.767v-22.867c0-.333-.3-.633-.633-.767z" />
</svg>
