<svg width="32" height="32" viewBox="0 0 32 32" xmlns="http://www.w3.org/2000/svg">
    <title>Piggybank</title>
    <path d="M21.167 7.5c.1-.433.133-.633.133-1.1 0-3.533-2.867-6.367-6.4-6.367-3.533 0-6.4 2.833-6.4 6.367 0 .467.067.7.133 1.1 4.1-1.767 8.7-1.667 12.533 0zm10.433 8.5c-.033-.033-3.9-3.4-4.967-9.767-.067-.433-.433-.8-.867-.867-.467-.067-.9.133-1.133.533l-2.533 4.667c-2-1.267-4.5-2.033-7.167-2.033-4.033 0-7.6 1.7-9.767 4.3.167-1.2-.633-1.667-.967-1.9-1.067-.667-2.433-.367-3.1.667-1.333 2.033-1.467 4.9-.233 6.733.733 1.067 1.467 1.5 2.267 1.833.333 1.867 1.233 3.567 2.567 4.933l-.967 3.333c-.333 1.133.367 2.333 1.5 2.667l3.167.833c1.033.267 2.1-.267 2.5-1.233.033-.1.6-2.1.6-2.1.7.133 1.533.2 2.4.2 1.067.033 2.233-.1 3.467-.4 0 0 .533 2.033.533 2.067.333 1.1 1.467 1.767 2.567 1.467l3.133-.8c1.167-.267 1.833-1.467 1.567-2.6l-.6-2.167c.167-.067.367-.133.533-.233 4.4-2.033 5.7-5.033 5.8-5.2.033-.133.1-.3.1-.433v-3.7c0-.3-.167-.6-.4-.8zm-5.867 1.067c0 1.267-1 2.267-2.233 2.267s-2.267-1-2.267-2.267c0-1.233 1.033-2.233 2.267-2.233 1.233 0 2.233 1 2.233 2.233z" />
</svg>
