<svg width="30" height="32" viewBox="0 0 30 32" xmlns="http://www.w3.org/2000/svg">
    <title>Stamp</title>
    <path d="M29.933 25.6c0-1.1-.733-4.267-2.867-5.367-1.333-.7-5.8-1.767-8.9-2.467-.167-1.4-.067-2.933.567-4.467.733-1.7 2.633-5.8 2.633-9 0-2.133-3.167-4.267-6.367-4.267s-6.4 2.133-6.4 4.267c0 3.2 1.967 7.3 2.667 9 .633 1.533.733 3.067.567 4.467-3.1.7-7.567 1.767-8.9 2.467-2.133 1.1-2.867 4.267-2.867 5.367 0 .6.567 1.067 1.067 1.067h27.733c.5 0 1.067-.467 1.067-1.067zm-26.567 5.7c.167.433.567.7 1.033.7h21.2c.467 0 .867-.267 1-.7l.867-2.5-24.933.033.833 2.467z" />
</svg>
